{
	"patcher" : 	{
		"fileversion" : 1,
		"appversion" : 		{
			"major" : 8,
			"minor" : 5,
			"revision" : 5,
			"architecture" : "x64",
			"modernui" : 1
		}
,
		"classnamespace" : "box",
		"rect" : [ 502.0, 353.0, 793.0, 483.0 ],
		"bglocked" : 0,
		"openinpresentation" : 1,
		"default_fontsize" : 12.0,
		"default_fontface" : 0,
		"default_fontname" : "Arial",
		"gridonopen" : 1,
		"gridsize" : [ 15.0, 15.0 ],
		"gridsnaponopen" : 1,
		"objectsnaponopen" : 1,
		"statusbarvisible" : 2,
		"toolbarvisible" : 1,
		"lefttoolbarpinned" : 0,
		"toptoolbarpinned" : 0,
		"righttoolbarpinned" : 0,
		"bottomtoolbarpinned" : 0,
		"toolbars_unpinned_last_save" : 0,
		"tallnewobj" : 0,
		"boxanimatetime" : 200,
		"enablehscroll" : 0,
		"enablevscroll" : 1,
		"devicewidth" : 0.0,
		"description" : "",
		"digest" : "",
		"tags" : "",
		"style" : "",
		"subpatcher_template" : "",
		"assistshowspatchername" : 0,
		"boxes" : [ 			{
				"box" : 				{
					"id" : "obj-7",
					"maxclass" : "button",
					"numinlets" : 1,
					"numoutlets" : 1,
					"outlettype" : [ "bang" ],
					"parameter_enable" : 0,
					"patching_rect" : [ 60.0, 158.0, 24.0, 24.0 ]
				}

			}
, 			{
				"box" : 				{
					"id" : "obj-1",
					"maxclass" : "newobj",
					"numinlets" : 0,
					"numoutlets" : 1,
					"outlettype" : [ "" ],
					"patching_rect" : [ 60.0, 106.0, 81.0, 22.0 ],
					"text" : "r ---reconnect"
				}

			}
, 			{
				"box" : 				{
					"id" : "obj-8",
					"maxclass" : "message",
					"numinlets" : 2,
					"numoutlets" : 1,
					"outlettype" : [ "" ],
					"patching_rect" : [ 19.0, 340.0, 50.0, 22.0 ],
					"text" : "set 8"
				}

			}
, 			{
				"box" : 				{
					"fontname" : "Arial",
					"fontsize" : 10.0,
					"id" : "obj-11",
					"maxclass" : "newobj",
					"numinlets" : 1,
					"numoutlets" : 1,
					"outlettype" : [ "" ],
					"patching_rect" : [ 25.0625, 293.0, 63.0, 20.0 ],
					"text" : "prepend set"
				}

			}
, 			{
				"box" : 				{
					"id" : "obj-2",
					"maxclass" : "newobj",
					"numinlets" : 0,
					"numoutlets" : 1,
					"outlettype" : [ "" ],
					"patching_rect" : [ 190.5625, 30.0, 73.0, 22.0 ],
					"text" : "r ---load_vst"
				}

			}
, 			{
				"box" : 				{
					"id" : "obj-107",
					"maxclass" : "newobj",
					"numinlets" : 1,
					"numoutlets" : 3,
					"outlettype" : [ "", "", "" ],
					"patching_rect" : [ 25.0625, 255.15384578704834, 174.0, 22.0 ],
					"restore" : [ 8 ],
					"saved_object_attributes" : 					{
						"parameter_enable" : 0,
						"parameter_mappable" : 0
					}
,
					"text" : "pattr save_selected_parameter",
					"varname" : "save_selected_parameter"
				}

			}
, 			{
				"box" : 				{
					"id" : "obj-5",
					"maxclass" : "comment",
					"numinlets" : 1,
					"numoutlets" : 0,
					"patching_rect" : [ 308.0625, 351.59375, 97.0, 20.0 ],
					"text" : "parameter name"
				}

			}
, 			{
				"box" : 				{
					"comment" : "Parameter Name",
					"id" : "obj-4",
					"index" : 2,
					"maxclass" : "outlet",
					"numinlets" : 1,
					"numoutlets" : 0,
					"patching_rect" : [ 271.0625, 346.59375, 30.0, 30.0 ],
					"varname" : "parameter_name"
				}

			}
, 			{
				"box" : 				{
					"id" : "obj-3",
					"items" : [ "Select Parameter", ",", "Bypass", ",", "External S/C", ",", "Input Trim", ",", "Polarity", ",", "Low Pass Filter", ",", "High Pass Filter", ",", "EQ In", ",", "EQ Type", ",", "LF Type", ",", "LF Frequency", ",", "LF Gain", ",", "LMF Frequency", ",", "LMF Gain", ",", "LMF Q", ",", "HMF Freq", ",", "HMF Gain", ",", "HMF Q", ",", "HF Type", ",", "HF Freq", ",", "HF Gain", ",", "Dynamics In", ",", "Compressor Peak", ",", "Compressor Fast Attack", ",", "Compressor Ratio", ",", "Compressor Threshold", ",", "Compressor Release", ",", "Compressor Mix", ",", "Gate Expander", ",", "Gate Attack", ",", "Gate Hold", ",", "Gate Threshold", ",", "Gate Range", ",", "Gate Release", ",", "Filters to Input", ",", "Dynamics Pre-EQ", ",", "Filters to S/C", ",", "EQ to S/C", ",", "S/C Listen", ",", "Fader Level", ",", "Output Trim", ",", "Width", ",", "Pan", ",", "Legacy Cut", ",", "Legacy Solo", ",", "Legacy Solo Safe", ",", "GroupSense", ",", "Filters In", ",", "Width Mode", ",", "Width Frequency", ",", "Compressor Auto Make-up", ",", "Compressor Auto Make-up Offset", ",", "Bypass", ",", "External S/C", ",", "Input Trim", ",", "Polarity", ",", "Low Pass Filter", ",", "High Pass Filter", ",", "EQ In", ",", "EQ Type", ",", "LF Type", ",", "LF Frequency", ",", "LF Gain", ",", "LMF Frequency", ",", "LMF Gain", ",", "LMF Q", ",", "HMF Freq", ",", "HMF Gain", ",", "HMF Q", ",", "HF Type", ",", "HF Freq", ",", "HF Gain", ",", "Dynamics In", ",", "Compressor Peak", ",", "Compressor Fast Attack", ",", "Compressor Ratio", ",", "Compressor Threshold", ",", "Compressor Release", ",", "Compressor Mix", ",", "Gate Expander", ",", "Gate Attack", ",", "Gate Hold", ",", "Gate Threshold", ",", "Gate Range", ",", "Gate Release", ",", "Filters to Input", ",", "Dynamics Pre-EQ", ",", "Filters to S/C", ",", "EQ to S/C", ",", "S/C Listen", ",", "Fader Level", ",", "Output Trim", ",", "Width", ",", "Pan", ",", "Legacy Cut", ",", "Legacy Solo", ",", "Legacy Solo Safe", ",", "GroupSense", ",", "Filters In", ",", "Width Mode", ",", "Width Frequency", ",", "Compressor Auto Make-up", ",", "Compressor Auto Make-up Offset", ",", "Bypass", ",", "External S/C", ",", "Input Trim", ",", "Polarity", ",", "Low Pass Filter", ",", "High Pass Filter", ",", "EQ In", ",", "EQ Type", ",", "LF Type", ",", "LF Frequency", ",", "LF Gain", ",", "LMF Frequency", ",", "LMF Gain", ",", "LMF Q", ",", "HMF Freq", ",", "HMF Gain", ",", "HMF Q", ",", "HF Type", ",", "HF Freq", ",", "HF Gain", ",", "Dynamics In", ",", "Compressor Peak", ",", "Compressor Fast Attack", ",", "Compressor Ratio", ",", "Compressor Threshold", ",", "Compressor Release", ",", "Compressor Mix", ",", "Gate Expander", ",", "Gate Attack", ",", "Gate Hold", ",", "Gate Threshold", ",", "Gate Range", ",", "Gate Release", ",", "Filters to Input", ",", "Dynamics Pre-EQ", ",", "Filters to S/C", ",", "EQ to S/C", ",", "S/C Listen", ",", "Fader Level", ",", "Output Trim", ",", "Width", ",", "Pan", ",", "Legacy Cut", ",", "Legacy Solo", ",", "Legacy Solo Safe", ",", "GroupSense", ",", "Filters In", ",", "Width Mode", ",", "Width Frequency", ",", "Compressor Auto Make-up", ",", "Compressor Auto Make-up Offset", ",", "Bypass", ",", "External S/C", ",", "Input Trim", ",", "Polarity", ",", "Low Pass Filter", ",", "High Pass Filter", ",", "EQ In", ",", "EQ Type", ",", "LF Type", ",", "LF Frequency", ",", "LF Gain", ",", "LMF Frequency", ",", "LMF Gain", ",", "LMF Q", ",", "HMF Freq", ",", "HMF Gain", ",", "HMF Q", ",", "HF Type", ",", "HF Freq", ",", "HF Gain", ",", "Dynamics In", ",", "Compressor Peak", ",", "Compressor Fast Attack", ",", "Compressor Ratio", ",", "Compressor Threshold", ",", "Compressor Release", ",", "Compressor Mix", ",", "Gate Expander", ",", "Gate Attack", ",", "Gate Hold", ",", "Gate Threshold", ",", "Gate Range", ",", "Gate Release", ",", "Filters to Input", ",", "Dynamics Pre-EQ", ",", "Filters to S/C", ",", "EQ to S/C", ",", "S/C Listen", ",", "Fader Level", ",", "Output Trim", ",", "Width", ",", "Pan", ",", "Legacy Cut", ",", "Legacy Solo", ",", "Legacy Solo Safe", ",", "GroupSense", ",", "Filters In", ",", "Width Mode", ",", "Width Frequency", ",", "Compressor Auto Make-up", ",", "Compressor Auto Make-up Offset", ",", "Bypass", ",", "External S/C", ",", "Input Trim", ",", "Polarity", ",", "Low Pass Filter", ",", "High Pass Filter", ",", "EQ In", ",", "EQ Type", ",", "LF Type", ",", "LF Frequency", ",", "LF Gain", ",", "LMF Frequency", ",", "LMF Gain", ",", "LMF Q", ",", "HMF Freq", ",", "HMF Gain", ",", "HMF Q", ",", "HF Type", ",", "HF Freq", ",", "HF Gain", ",", "Dynamics In", ",", "Compressor Peak", ",", "Compressor Fast Attack", ",", "Compressor Ratio", ",", "Compressor Threshold", ",", "Compressor Release", ",", "Compressor Mix", ",", "Gate Expander", ",", "Gate Attack", ",", "Gate Hold", ",", "Gate Threshold", ",", "Gate Range", ",", "Gate Release", ",", "Filters to Input", ",", "Dynamics Pre-EQ", ",", "Filters to S/C", ",", "EQ to S/C", ",", "S/C Listen", ",", "Fader Level", ",", "Output Trim", ",", "Width", ",", "Pan", ",", "Legacy Cut", ",", "Legacy Solo", ",", "Legacy Solo Safe", ",", "GroupSense", ",", "Filters In", ",", "Width Mode", ",", "Width Frequency", ",", "Compressor Auto Make-up", ",", "Compressor Auto Make-up Offset" ],
					"maxclass" : "umenu",
					"numinlets" : 1,
					"numoutlets" : 3,
					"outlettype" : [ "int", "", "" ],
					"parameter_enable" : 0,
					"patching_rect" : [ 201.0625, 302.0, 159.0, 23.0 ],
					"presentation" : 1,
					"presentation_rect" : [ 0.0625, 0.0, 220.0, 23.0 ],
					"style" : "rnbohighcontrast",
					"textcolor" : [ 0.847058823529412, 0.847058823529412, 0.847058823529412, 1.0 ],
					"varname" : "umenu"
				}

			}
, 			{
				"box" : 				{
					"id" : "obj-121",
					"maxclass" : "comment",
					"numinlets" : 1,
					"numoutlets" : 0,
					"patching_rect" : [ 102.0625, 351.59375, 97.0, 20.0 ],
					"text" : "parameter index"
				}

			}
, 			{
				"box" : 				{
					"id" : "obj-101",
					"maxclass" : "newobj",
					"numinlets" : 1,
					"numoutlets" : 1,
					"outlettype" : [ "" ],
					"patching_rect" : [ 201.0625, 216.15384578704834, 29.0, 22.0 ],
					"text" : "thru"
				}

			}
, 			{
				"box" : 				{
					"id" : "obj-94",
					"maxclass" : "newobj",
					"numinlets" : 1,
					"numoutlets" : 0,
					"patching_rect" : [ 368.5, 216.15384578704834, 121.0, 22.0 ],
					"text" : "s ---vst_control_input"
				}

			}
, 			{
				"box" : 				{
					"id" : "obj-93",
					"maxclass" : "message",
					"numinlets" : 2,
					"numoutlets" : 1,
					"outlettype" : [ "" ],
					"patching_rect" : [ 368.5, 137.043777167797089, 49.0, 22.0 ],
					"text" : "params"
				}

			}
, 			{
				"box" : 				{
					"id" : "obj-88",
					"maxclass" : "newobj",
					"numinlets" : 0,
					"numoutlets" : 1,
					"outlettype" : [ "" ],
					"patching_rect" : [ 434.837004082543558, 82.59375, 125.0, 22.0 ],
					"text" : "r ---parameter_names"
				}

			}
, 			{
				"box" : 				{
					"id" : "obj-87",
					"maxclass" : "button",
					"numinlets" : 1,
					"numoutlets" : 1,
					"outlettype" : [ "bang" ],
					"parameter_enable" : 0,
					"patching_rect" : [ 284.28125, 48.0, 24.0, 24.0 ]
				}

			}
, 			{
				"box" : 				{
					"id" : "obj-85",
					"maxclass" : "newobj",
					"numinlets" : 1,
					"numoutlets" : 4,
					"outlettype" : [ "bang", "bang", "bang", "bang" ],
					"patching_rect" : [ 190.5625, 82.59375, 50.5, 22.0 ],
					"text" : "b 4"
				}

			}
, 			{
				"box" : 				{
					"id" : "obj-132",
					"maxclass" : "newobj",
					"numinlets" : 1,
					"numoutlets" : 1,
					"outlettype" : [ "" ],
					"patching_rect" : [ 434.837004082543558, 137.043777167797089, 96.0, 22.0 ],
					"text" : "prepend append"
				}

			}
, 			{
				"box" : 				{
					"id" : "obj-135",
					"maxclass" : "message",
					"numinlets" : 2,
					"numoutlets" : 1,
					"outlettype" : [ "" ],
					"patching_rect" : [ 146.0, 137.043777167797089, 35.0, 22.0 ],
					"text" : "clear"
				}

			}
, 			{
				"box" : 				{
					"id" : "obj-157",
					"maxclass" : "message",
					"numinlets" : 2,
					"numoutlets" : 1,
					"outlettype" : [ "" ],
					"patching_rect" : [ 201.0625, 137.043777167797089, 153.0, 22.0 ],
					"text" : "append \"Select Parameter\""
				}

			}
, 			{
				"box" : 				{
					"comment" : "Parameter Index",
					"id" : "obj-122",
					"index" : 1,
					"maxclass" : "outlet",
					"numinlets" : 1,
					"numoutlets" : 0,
					"patching_rect" : [ 201.0625, 346.59375, 30.0, 30.0 ],
					"varname" : "parameter_index"
				}

			}
 ],
		"lines" : [ 			{
				"patchline" : 				{
					"destination" : [ "obj-7", 0 ],
					"source" : [ "obj-1", 0 ]
				}

			}
, 			{
				"patchline" : 				{
					"destination" : [ "obj-3", 0 ],
					"source" : [ "obj-101", 0 ]
				}

			}
, 			{
				"patchline" : 				{
					"destination" : [ "obj-11", 0 ],
					"source" : [ "obj-107", 0 ]
				}

			}
, 			{
				"patchline" : 				{
					"destination" : [ "obj-3", 0 ],
					"order" : 0,
					"source" : [ "obj-11", 0 ]
				}

			}
, 			{
				"patchline" : 				{
					"destination" : [ "obj-8", 1 ],
					"order" : 1,
					"source" : [ "obj-11", 0 ]
				}

			}
, 			{
				"patchline" : 				{
					"destination" : [ "obj-101", 0 ],
					"source" : [ "obj-132", 0 ]
				}

			}
, 			{
				"patchline" : 				{
					"destination" : [ "obj-101", 0 ],
					"source" : [ "obj-135", 0 ]
				}

			}
, 			{
				"patchline" : 				{
					"destination" : [ "obj-101", 0 ],
					"source" : [ "obj-157", 0 ]
				}

			}
, 			{
				"patchline" : 				{
					"destination" : [ "obj-85", 0 ],
					"source" : [ "obj-2", 0 ]
				}

			}
, 			{
				"patchline" : 				{
					"destination" : [ "obj-107", 0 ],
					"order" : 1,
					"source" : [ "obj-3", 0 ]
				}

			}
, 			{
				"patchline" : 				{
					"destination" : [ "obj-122", 0 ],
					"order" : 0,
					"source" : [ "obj-3", 0 ]
				}

			}
, 			{
				"patchline" : 				{
					"destination" : [ "obj-4", 0 ],
					"source" : [ "obj-3", 1 ]
				}

			}
, 			{
				"patchline" : 				{
					"destination" : [ "obj-3", 0 ],
					"source" : [ "obj-7", 0 ]
				}

			}
, 			{
				"patchline" : 				{
					"destination" : [ "obj-107", 0 ],
					"source" : [ "obj-85", 0 ]
				}

			}
, 			{
				"patchline" : 				{
					"destination" : [ "obj-135", 0 ],
					"source" : [ "obj-85", 3 ]
				}

			}
, 			{
				"patchline" : 				{
					"destination" : [ "obj-157", 0 ],
					"source" : [ "obj-85", 2 ]
				}

			}
, 			{
				"patchline" : 				{
					"destination" : [ "obj-93", 0 ],
					"source" : [ "obj-85", 1 ]
				}

			}
, 			{
				"patchline" : 				{
					"destination" : [ "obj-85", 0 ],
					"source" : [ "obj-87", 0 ]
				}

			}
, 			{
				"patchline" : 				{
					"destination" : [ "obj-132", 0 ],
					"source" : [ "obj-88", 0 ]
				}

			}
, 			{
				"patchline" : 				{
					"destination" : [ "obj-94", 0 ],
					"source" : [ "obj-93", 0 ]
				}

			}
 ],
		"styles" : [ 			{
				"name" : "rnbohighcontrast",
				"default" : 				{
					"accentcolor" : [ 0.666666666666667, 0.666666666666667, 0.666666666666667, 1.0 ],
					"bgcolor" : [ 0.0, 0.0, 0.0, 1.0 ],
					"bgfillcolor" : 					{
						"angle" : 270.0,
						"autogradient" : 0.0,
						"color" : [ 0.0, 0.0, 0.0, 1.0 ],
						"color1" : [ 0.090196078431373, 0.090196078431373, 0.090196078431373, 1.0 ],
						"color2" : [ 0.156862745098039, 0.168627450980392, 0.164705882352941, 1.0 ],
						"proportion" : 0.5,
						"type" : "color"
					}
,
					"clearcolor" : [ 1.0, 1.0, 1.0, 0.0 ],
					"color" : [ 1.0, 0.874509803921569, 0.141176470588235, 1.0 ],
					"editing_bgcolor" : [ 0.258823529411765, 0.258823529411765, 0.258823529411765, 1.0 ],
					"elementcolor" : [ 0.223386004567146, 0.254748553037643, 0.998085916042328, 1.0 ],
					"fontsize" : [ 13.0 ],
					"locked_bgcolor" : [ 0.258823529411765, 0.258823529411765, 0.258823529411765, 1.0 ],
					"selectioncolor" : [ 0.301960784313725, 0.694117647058824, 0.949019607843137, 1.0 ],
					"stripecolor" : [ 0.258823529411765, 0.258823529411765, 0.258823529411765, 1.0 ],
					"textcolor" : [ 1.0, 1.0, 1.0, 1.0 ],
					"textcolor_inverse" : [ 1.0, 1.0, 1.0, 1.0 ]
				}
,
				"parentstyle" : "",
				"multi" : 0
			}
 ],
		"saved_attribute_attributes" : 		{
			"default_plcolor" : 			{
				"expression" : ""
			}

		}

	}

}
